<?xml version="1.0" encoding="UTF-8" standalone="no"?>
<svg xmlns="http://www.w3.org/2000/svg" version="1.1" viewBox="0 0 231 132">
   <polyline fill="none" points="15,6 214,6" stroke="rgb(0, 0, 0)" stroke-linecap="square" stroke-width="2.0"/>
   <polyline fill="none" points="215,6 215,125" stroke="rgb(0, 0, 0)" stroke-linecap="square" stroke-width="2.0"/>
   <polyline fill="none" points="215,126 16,126" stroke="rgb(0, 0, 0)" stroke-linecap="square" stroke-width="2.0"/>
   <polyline fill="none" points="15,126 15,7" stroke="rgb(0, 0, 0)" stroke-linecap="square" stroke-width="2.0"/>
   <rect fill="rgb(0, 0, 0)" height="20" stroke="none" stroke-linecap="square" stroke-width="1.0" width="200" x="15" y="106"/>
   <rect fill="rgb(0, 0, 0)" height="3" stroke="none" stroke-linecap="square" stroke-width="1.0" width="10" x="215" y="15"/>
   <rect fill="rgb(0, 0, 0)" height="3" stroke="none" stroke-linecap="square" stroke-width="1.0" width="10" x="215" y="35"/>
   <rect fill="rgb(0, 0, 0)" height="3" stroke="none" stroke-linecap="square" stroke-width="1.0" width="10" x="215" y="55"/>
   <rect fill="rgb(0, 0, 0)" height="4" stroke="none" stroke-linecap="square" stroke-width="1.0" width="10" x="215" y="74"/>
   <rect fill="rgb(0, 0, 0)" height="4" stroke="none" stroke-linecap="square" stroke-width="1.0" width="10" x="5" y="74"/>
   <rect fill="rgb(0, 0, 0)" height="4" stroke="none" stroke-linecap="square" stroke-width="1.0" width="10" x="5" y="94"/>
   <rect fill="rgb(0, 0, 0)" height="4" stroke="none" stroke-linecap="square" stroke-width="1.0" width="10" x="5" y="14"/>
   <rect fill="rgb(0, 0, 0)" height="4" stroke="none" stroke-linecap="square" stroke-width="1.0" width="10" x="5" y="34"/>
   <rect fill="rgb(0, 0, 0)" height="4" stroke="none" stroke-linecap="square" stroke-width="1.0" width="10" x="5" y="54"/>
   <text fill="rgb(64, 64, 64)" font-family="Courier 10 Pitch" font-size="12" x="203.0" y="60.0">V</text>
   <text fill="rgb(64, 64, 64)" font-family="Courier 10 Pitch" font-size="12" x="203.0" y="20.0">C</text>
   <text fill="rgb(64, 64, 64)" font-family="Courier 10 Pitch" font-size="12" x="203.0" y="40.0">Z</text>
   <text fill="rgb(64, 64, 64)" font-family="Courier 10 Pitch" font-size="12" x="191.0" y="80.0">RES</text>
   <text fill="rgb(64, 64, 64)" font-family="Courier 10 Pitch" font-size="12" x="20.0" y="60.0">D</text>
   <text fill="rgb(64, 64, 64)" font-family="Courier 10 Pitch" font-size="12" x="20.0" y="100.0">CTL</text>
   <text fill="rgb(64, 64, 64)" font-family="Courier 10 Pitch" font-size="12" x="20.0" y="20.0">R1</text>
   <text fill="rgb(64, 64, 64)" font-family="Courier 10 Pitch" font-size="12" x="20.0" y="40.0">R2</text>
   <text fill="rgb(64, 64, 64)" font-family="Courier 10 Pitch" font-size="12" x="21.0" y="80.0">H</text>
   <text fill="rgb(255, 255, 255)" font-family="Courier 10 Pitch" font-size="14" font-weight="bold" x="95.0" y="120.0">Thing</text>
</svg>
